<?xml version="1.0" encoding="UTF-8"?>
<!DOCTYPE svg PUBLIC "-//W3C//DTD SVG 1.1//EN" "http://www.w3.org/Graphics/SVG/1.1/DTD/svg11.dtd">
<svg xmlns="http://www.w3.org/2000/svg" version="1.1" width="543px" height="499px" style="shape-rendering:geometricPrecision; text-rendering:geometricPrecision; image-rendering:optimizeQuality; fill-rule:evenodd; clip-rule:evenodd" xmlns:xlink="http://www.w3.org/1999/xlink">
<g><path style="opacity:0.985" fill="#FF4848" d="M 78.5,-0.5 C 82.1667,-0.5 85.8333,-0.5 89.5,-0.5C 207.333,0.333095 325.333,0.833095 443.5,1C 398.779,24.0273 353.779,46.5273 308.5,68.5C 301.074,84.2736 293.74,100.107 286.5,116C 371.831,117.13 457.164,117.964 542.5,118.5C 542.5,118.833 542.5,119.167 542.5,119.5C 497.949,142.026 453.449,164.693 409,187.5C 362.534,291.078 316.367,394.745 270.5,498.5C 267.833,498.5 265.167,498.5 262.5,498.5C 227.337,497.502 192.004,497.168 156.5,497.5C 200.01,397.145 244.01,296.979 288.5,197C 275.591,196.178 262.758,196.345 250,197.5C 222.559,258.048 195.392,318.715 168.5,379.5C 130.484,381.204 92.4845,382.537 54.5,383.5C 54.1667,382.833 53.8333,382.167 53.5,381.5C 79.5156,320.806 105.516,260.14 131.5,199.5C 120.48,199.832 109.48,199.499 98.5,198.5C 119.125,179.043 139.625,159.376 160,139.5C 168.5,119.833 177,100.167 185.5,80.5C 180.833,80.1667 176.167,79.8333 171.5,79.5C 114.17,80.715 56.8366,81.715 -0.5,82.5C -0.5,81.8333 -0.5,81.1667 -0.5,80.5C 26.1687,53.8312 52.5021,26.8312 78.5,-0.5 Z"/></g>
</svg>
